HIERARCHY
ROOT Hips
{
	OFFSET 0.00000 0.00000 0.00000
	CHANNELS 6 Xposition Yposition Zposition Zrotation Yrotation Xrotation 
	JOINT LHipJoint
	{
		OFFSET 0 0 0
		CHANNELS 3 Zrotation Yrotation Xrotation
		JOINT LeftUpLeg
		{
			OFFSET 1.36306 -1.79463 0.83929
			CHANNELS 3 Zrotation Yrotation Xrotation
			JOINT LeftLeg
			{
				OFFSET 2.44811 -6.72613 0.00000
				CHANNELS 3 Zrotation Yrotation Xrotation
				JOINT LeftFoot
				{
					OFFSET 2.56220 -7.03959 0.00000
					CHANNELS 3 Zrotation Yrotation Xrotation
					JOINT LeftToeBase
					{
						OFFSET 0.15764 -0.43311 2.32255
						CHANNELS 3 Zrotation Yrotation Xrotation
						End Site
						{
							OFFSET 0.00000 -0.00000 1.18966
						}
					}
				}
			}
		}
	}
	JOINT RHipJoint
	{
		OFFSET 0 0 0
		CHANNELS 3 Zrotation Yrotation Xrotation
		JOINT RightUpLeg
		{
			OFFSET -1.30552 -1.79463 0.83929
			CHANNELS 3 Zrotation Yrotation Xrotation
			JOINT RightLeg
			{
				OFFSET -2.54253 -6.98555 0.00000
				CHANNELS 3 Zrotation Yrotation Xrotation
				JOINT RightFoot
				{
					OFFSET -2.56826 -7.05623 0.00000
					CHANNELS 3 Zrotation Yrotation Xrotation
					JOINT RightToeBase
					{
						OFFSET -0.16473 -0.45259 2.36315
						CHANNELS 3 Zrotation Yrotation Xrotation
						End Site
						{
							OFFSET -0.00000 -0.00000 1.21082
						}
					}
				}
			}
		}
	}
	JOINT LowerBack
	{
		OFFSET 0 0 0
		CHANNELS 3 Zrotation Yrotation Xrotation
		JOINT Spine
		{
			OFFSET 0.02827 2.03559 -0.19338
			CHANNELS 3 Zrotation Yrotation Xrotation
			JOINT Spine1
			{
				OFFSET 0.05672 2.04885 -0.04275
				CHANNELS 3 Zrotation Yrotation Xrotation
				JOINT Neck
				{
					OFFSET 0 0 0
					CHANNELS 3 Zrotation Yrotation Xrotation
					JOINT Neck1
					{
						OFFSET -0.05417 1.74624 0.17202
						CHANNELS 3 Zrotation Yrotation Xrotation
						JOINT Head
						{
							OFFSET 0.10407 1.76136 -0.12397
							CHANNELS 3 Zrotation Yrotation Xrotation
							End Site
							{
								OFFSET 0.03720 1.77044 -0.06241
							}
						}
					}
				}
				JOINT LeftShoulder
				{
					OFFSET 0 0 0
					CHANNELS 3 Zrotation Yrotation Xrotation
					JOINT LeftArm
					{
						OFFSET 3.36241 1.20089 -0.31121
						CHANNELS 3 Zrotation Yrotation Xrotation
						JOINT LeftForeArm
						{
							OFFSET 4.98300 -0.00000 -0.00000
							CHANNELS 3 Zrotation Yrotation Xrotation
							JOINT LeftHand
							{
								OFFSET 3.48356 -0.00000 -0.00000
								CHANNELS 3 Zrotation Yrotation Xrotation
								JOINT LeftFingerBase
								{
									OFFSET 0 0 0
									CHANNELS 3 Zrotation Yrotation Xrotation
									JOINT LeftHandIndex1
									{
										OFFSET 0.71526 -0.00000 -0.00000
										CHANNELS 3 Zrotation Yrotation Xrotation
										End Site
										{
											OFFSET 0.57666 -0.00000 -0.00000
										}
									}
								}
								JOINT LThumb
								{
									OFFSET 0 0 0
									CHANNELS 3 Zrotation Yrotation Xrotation
									End Site
									{
										OFFSET 0.58547 -0.00000 0.58547
									}
								}
							}
						}
					}
				}
				JOINT RightShoulder
				{
					OFFSET 0 0 0
					CHANNELS 3 Zrotation Yrotation Xrotation
					JOINT RightArm
					{
						OFFSET -3.13660 1.37405 -0.40465
						CHANNELS 3 Zrotation Yrotation Xrotation
						JOINT RightForeArm
						{
							OFFSET -5.24190 -0.00000 -0.00000
							CHANNELS 3 Zrotation Yrotation Xrotation
							JOINT RightHand
							{
								OFFSET -3.44417 -0.00000 -0.00000
								CHANNELS 3 Zrotation Yrotation Xrotation
								JOINT RightFingerBase
								{
									OFFSET 0 0 0
									CHANNELS 3 Zrotation Yrotation Xrotation
									JOINT RightHandIndex1
									{
										OFFSET -0.62253 -0.00000 -0.00000
										CHANNELS 3 Zrotation Yrotation Xrotation
										End Site
										{
											OFFSET -0.50190 -0.00000 -0.00000
										}
									}
								}
								JOINT RThumb
								{
									OFFSET 0 0 0
									CHANNELS 3 Zrotation Yrotation Xrotation
									End Site
									{
										OFFSET -0.50956 -0.00000 0.50956
									}
								}
							}
						}
					}
				}
			}
		}
	}
}
MOTION
Frames: 16
Frame Time: .0083333
15.19 17.8785 17.1506 0 0 0 0 0 0 -21 0 0 0 0 0 0 0 0 0 0 0 0 0 0 21 0 0 0 0 0 0 0 0 0 0 0 0 0 0 0 0 0 0 0 0 0 0 -16 0 0 21 0 0 11 0 0 0 -8 0 0 0 0 0 0 0 0 0 0 0 0 0 0 0 0 0 0 0 0 8 0 0 0 0 0 0 0 0 0 0 0 0 0 0 0 0 0
15.1900 17.8785 17.1506 -141.5320 -81.8495 143.3190 0.0000 0.0000 0.0000 -15.3994 -0.3314 -7.0648 2.4003 9.6544 27.8646 1.1921 -3.7658 -19.7339 0.1884 2.7957 7.7106 0.0000 0.0000 0.0000 24.2246 7.2586 -5.8650 -2.5295 -9.8914 28.6257 -0.8360 -3.6500 -18.9662 -0.0734 -1.7476 4.8087 0.8109 2.1007 3.8446 1.8059 2.8698 -0.3437 1.2285 1.4256 -2.5601 -4.0379 -2.1389 -8.8864 3.3025 -2.7797 10.9846 1.4905 -1.3414 4.8565 -0.0000 -0.0000 0.0000 -88.4851 1.7709 21.0606 14.4052 -23.3111 -2.9866 -0.0000 -0.0000 0.1272 14.6327 -7.5673 -1.9692 -7.1250 0.0000 -0.0000 -8.8670 22.1923 4.9186 -0.0000 -0.0000 0.0000 88.8654 1.4531 17.1647 -11.7615 19.4460 -2.0222 0.0000 -0.0000 -8.9005 -16.3454 -22.6954 6.4560 7.1250 -0.0000 -0.0000 13.1114 -53.0529 -2.6335
15.1916 17.8715 17.1543 -140.9080 -81.6908 142.7920 0.0000 0.0000 0.0000 -15.2527 -0.5196 -7.1317 2.4114 9.6750 27.9306 1.1910 -3.6964 -19.7347 0.2451 3.1858 8.7963 0.0000 0.0000 0.0000 24.0151 5.2575 -6.9757 -2.5646 -9.9545 28.8295 -0.8669 -1.8424 -18.3462 -0.0419 -1.3211 3.6327 1.0253 2.1797 3.7660 1.8048 2.9835 -0.3755 1.1034 1.4791 -2.5396 -3.9740 -2.1740 -8.7872 3.3287 -2.8411 10.9065 1.4849 -1.3681 4.8175 0.0000 0.0000 0.0000 -88.4072 1.7616 21.2784 14.3758 -23.2694 -2.9750 -0.0000 -0.0000 0.0783 14.5525 -7.5911 -1.9641 -7.1250 0.0000 -0.0000 -8.9242 22.1712 4.9554 0.0000 0.0000 0.0000 88.8399 1.4216 17.3375 -11.8359 19.5581 -2.0470 0.0000 -0.0000 -9.3360 -16.6513 -22.7169 6.5886 7.1250 -0.0000 -0.0000 12.8169 -53.1294 -2.5970
15.1957 17.8706 17.1526 -142.1200 -81.7381 144.0030 0.0000 0.0000 0.0000 -15.4187 -0.3545 -7.1994 2.4087 9.6700 27.9146 1.1876 -3.7300 -19.6998 0.2460 3.1917 8.8128 0.0000 0.0000 0.0000 24.0730 6.7340 -6.4069 -2.5760 -9.9747 28.8949 -0.8596 -2.9689 -18.8283 -0.0668 -1.6680 4.5890 0.7618 2.2303 3.7748 1.7928 3.0396 -0.3636 1.2345 1.5111 -2.5461 -3.9822 -2.1952 -8.8573 3.2839 -2.8627 10.9886 1.4700 -1.3813 4.8549 0.0000 -0.0000 0.0000 -88.4478 1.7221 21.3539 14.3738 -23.2665 -2.9742 -0.0000 -0.0000 0.0579 14.5323 -7.5972 -1.9628 -7.1250 0.0000 -0.0000 -8.9386 22.1658 4.9648 0.0000 -0.0000 0.0000 88.7303 1.5187 17.3245 -11.8292 19.5480 -2.0448 0.0000 -0.0000 -9.5621 -16.2799 -22.7442 6.4418 7.1250 -0.0000 -0.0000 13.1979 -53.0896 -2.6633
15.2008 17.8725 17.1494 -143.3970 -81.7015 145.2550 0.0000 0.0000 0.0000 -15.5304 -0.1333 -7.2935 2.4165 9.6845 27.9609 1.1835 -3.6968 -19.6701 0.2266 3.0642 8.4576 0.0000 0.0000 0.0000 24.0155 7.2328 -6.2616 -2.5859 -9.9924 28.9522 -0.8534 -3.3328 -18.9632 -0.0739 -1.7532 4.8240 0.5182 2.2543 3.8374 1.8030 3.0627 -0.3690 1.3768 1.5264 -2.6006 -4.0692 -2.1741 -8.8748 3.2936 -2.8247 11.0508 1.4896 -1.3658 4.8770 -0.0000 -0.0000 0.0000 -88.5111 1.7619 21.2755 14.4028 -23.3076 -2.9856 -0.0000 -0.0000 0.0379 14.5181 -7.5787 -1.9561 -7.1250 0.0000 -0.0000 -8.9497 22.1852 4.9670 -0.0000 -0.0000 0.0000 88.6582 1.5110 17.3742 -11.8599 19.5942 -2.0551 0.0000 -0.0000 -9.5898 -16.6493 -22.4721 6.5210 7.1250 -0.0000 -0.0000 12.7136 -52.8853 -2.4989
15.2038 17.8705 17.1516 -142.5910 -81.5309 144.3440 0.0000 0.0000 0.0000 -15.3246 -0.0890 -7.2074 2.4255 9.7011 28.0142 1.1785 -3.5937 -19.6425 0.2141 2.9791 8.2206 0.0000 0.0000 0.0000 24.2097 6.9459 -6.2747 -2.5817 -9.9849 28.9280 -0.8335 -3.4496 -18.8281 -0.0257 -1.0349 2.8447 0.7256 2.2250 3.9756 1.8320 3.0350 -0.3544 1.2871 1.5090 -2.6533 -3.9610 -2.1258 -8.8327 3.2333 -2.7688 11.0452 1.4576 -1.3383 4.8637 -0.0000 -0.0000 0.0000 -88.5016 1.7746 20.9971 14.3850 -23.2824 -2.9786 -0.0000 -0.0000 0.2312 14.3773 -7.6576 -1.9563 -7.1250 0.0000 -0.0000 -9.0485 22.1103 5.0389 -0.0000 -0.0000 0.0000 88.7279 1.4428 17.5633 -11.9089 19.6678 -2.0715 0.0000 -0.0000 -9.4332 -17.3634 -22.1495 6.7234 7.1250 -0.0000 -0.0000 11.8707 -52.6901 -2.2722
15.2035 17.8705 17.1548 -141.9190 -81.6169 143.5940 0.0000 0.0000 0.0000 -15.3059 -0.2554 -7.1372 2.4435 9.7345 28.1212 1.1732 -3.6265 -19.5911 0.2291 3.0808 8.5037 0.0000 0.0000 0.0000 24.2075 6.5183 -6.2974 -2.5737 -9.9707 28.8818 -0.8234 -3.3162 -18.6511 -0.0094 -0.6244 1.7159 0.7444 2.1407 4.0211 1.8228 2.9232 -0.3256 1.2731 1.4529 -2.6457 -3.7895 -2.0949 -8.8087 3.1200 -2.7372 11.0337 1.3969 -1.3231 4.8510 0.0000 0.0000 0.0000 -88.4993 1.7676 20.7276 14.3765 -23.2705 -2.9753 -0.0000 -0.0000 0.4452 14.2630 -7.7228 -1.9565 -7.1250 0.0000 -0.0000 -9.1287 22.0484 5.0977 0.0000 0.0000 0.0000 88.7896 1.4783 17.7331 -11.9116 19.6719 -2.0724 0.0000 -0.0000 -9.5711 -17.0096 -22.2966 6.6204 7.1250 -0.0000 -0.0000 12.2824 -52.7744 -2.3785
15.2050 17.8711 17.1604 -140.7370 -81.6383 142.3510 0.0000 0.0000 0.0000 -15.2179 -0.5371 -7.0475 2.4613 9.7672 28.2261 1.1724 -3.4776 -19.6081 0.2430 3.1720 8.7579 0.0000 0.0000 0.0000 24.3087 6.3449 -6.2445 -2.5646 -9.9544 28.8293 -0.8270 -3.0701 -18.5535 -0.0257 -1.0354 2.8461 0.9294 2.1131 4.0847 1.8517 2.8952 -0.2832 1.1998 1.4358 -2.6295 -3.9057 -2.1537 -8.9278 3.1766 -2.8060 11.1368 1.4274 -1.3571 4.9078 -0.0000 -0.0000 0.0000 -88.5190 1.7485 20.8105 14.3967 -23.2990 -2.9832 -0.0000 -0.0000 0.4414 14.2940 -7.7123 -1.9583 -7.1250 0.0000 -0.0000 -9.1067 22.0579 5.0831 -0.0000 -0.0000 0.0000 88.7793 1.5499 17.5672 -11.9320 19.7026 -2.0793 0.0000 -0.0000 -9.6364 -16.9656 -22.1336 6.5569 7.1250 -0.0000 -0.0000 12.2582 -52.6037 -2.3220
15.2104 17.8759 17.1654 -140.1010 -81.4485 141.7930 0.0000 0.0000 0.0000 -15.0512 -0.6448 -7.1347 2.4726 9.7879 28.2927 1.1790 -3.1848 -19.7145 0.2235 3.0430 8.3984 0.0000 0.0000 0.0000 24.4643 6.4130 -6.3392 -2.5582 -9.9430 28.7923 -0.8452 -2.6595 -18.5234 -0.0648 -1.6420 4.5173 1.2099 2.1686 4.0818 1.8890 2.9827 -0.2963 1.0760 1.4750 -2.6305 -4.1294 -2.2380 -9.0466 3.3072 -2.9031 11.2365 1.4962 -1.4048 4.9673 0.0000 -0.0000 0.0000 -88.5247 1.7296 21.0587 14.4054 -23.3113 -2.9867 -0.0000 -0.0000 0.2792 14.3796 -7.6927 -1.9655 -7.1250 0.0000 -0.0000 -9.0455 22.0745 5.0446 0.0000 -0.0000 0.0000 88.7260 1.5710 17.4211 -11.9631 19.7493 -2.0898 0.0000 -0.0000 -9.5050 -17.1104 -21.8432 6.5340 7.1250 -0.0000 -0.0000 11.9965 -52.3384 -2.1927
15.2168 17.8847 17.1664 -141.6170 -81.3611 143.4480 0.0000 0.0000 0.0000 -15.1890 -0.5375 -7.3830 2.4834 9.8077 28.3563 1.1832 -3.1602 -19.7553 0.2265 3.0631 8.4545 0.0000 0.0000 0.0000 24.2595 6.3483 -6.6009 -2.5538 -9.9351 28.7670 -0.8595 -2.1618 -18.4213 -0.0827 -1.8553 5.1058 1.0692 2.2283 4.0283 1.8278 3.0559 -0.3618 1.0876 1.5137 -2.6727 -4.1237 -2.2157 -9.0507 3.3398 -2.8801 11.2944 1.5070 -1.3916 4.9853 0.0000 0.0000 0.0000 -88.4587 1.8127 21.2740 14.4526 -23.3781 -3.0054 -0.0000 0.0000 -0.0528 14.4756 -7.6304 -1.9633 -7.1250 0.0000 -0.0000 -8.9785 22.1342 4.9940 0.0000 0.0000 0.0000 88.7033 1.5465 17.7342 -11.9728 19.7638 -2.0931 0.0000 -0.0000 -9.6463 -16.7234 -21.9943 6.4203 7.1250 -0.0000 -0.0000 12.4401 -52.4220 -2.3015
15.2245 17.8863 17.1696 -141.8900 -81.3808 143.6800 0.0000 0.0000 0.0000 -15.2065 -0.3187 -7.4996 2.4927 9.8246 28.4107 1.1657 -3.4791 -19.5499 0.2587 3.2725 9.0383 0.0000 0.0000 0.0000 24.1783 6.1455 -6.6740 -2.5525 -9.9327 28.7590 -0.8533 -2.0443 -18.3021 -0.0794 -1.8180 5.0030 1.0817 2.2301 4.1778 1.7432 3.0613 -0.3772 0.9868 1.5156 -2.7673 -3.9237 -2.1884 -9.0799 3.2836 -2.8670 11.3886 1.4574 -1.3806 5.0151 -0.0000 0.0000 0.0000 -88.2927 1.8952 21.5186 14.5080 -23.4563 -3.0274 -0.0000 0.0000 -0.3100 14.4853 -7.6394 -1.9670 -7.1250 0.0000 -0.0000 -8.9710 22.1246 4.9917 -0.0000 0.0000 0.0000 88.8388 1.5499 17.5851 -11.9636 19.7500 -2.0900 0.0000 -0.0000 -9.2060 -16.3299 -22.2226 6.3231 7.1250 -0.0000 -0.0000 12.9238 -52.5803 -2.4440
15.2294 17.8823 17.1800 -140.1580 -81.4511 141.7590 0.0000 0.0000 0.0000 -15.0423 -0.3002 -7.3450 2.4938 9.8267 28.4174 1.1575 -3.6604 -19.4498 0.2786 3.3948 9.3800 0.0000 0.0000 0.0000 24.3253 5.8497 -6.5801 -2.5570 -9.9408 28.7851 -0.8422 -2.1394 -18.2349 -0.0775 -1.7954 4.9407 1.6130 2.1224 4.4216 1.5766 2.9446 -0.3052 0.5190 1.4478 -2.7930 -3.7169 -2.1594 -9.0444 3.3944 -2.8703 11.2974 1.4584 -1.3667 4.9796 -0.0000 -0.0000 0.0000 -87.9854 1.8758 21.5123 14.5268 -23.4828 -3.0349 -0.0000 0.0000 -0.2364 14.3716 -7.7984 -1.9912 -7.1250 0.0000 -0.0000 -9.0470 21.9672 5.0679 -0.0000 -0.0000 0.0000 89.1783 1.5459 17.2245 -12.0628 19.8988 -2.1236 0.0000 -0.0000 -8.4460 -15.3652 -22.6856 6.0497 7.1250 -0.0000 -0.0000 14.0767 -52.8682 -2.7691
15.2333 17.8845 17.1813 -141.1110 -81.1502 142.7690 0.0000 0.0000 0.0000 -14.9762 -0.0453 -7.4435 2.4848 9.8102 28.3641 1.1678 -3.5294 -19.5598 0.2751 3.3738 9.3213 0.0000 0.0000 0.0000 24.4260 6.3092 -6.5520 -2.5678 -9.9602 28.8480 -0.8394 -2.2973 -18.2828 -0.0710 -1.7196 4.7313 2.0483 2.1624 4.2808 1.2821 3.0079 -0.2153 -0.0216 1.4740 -2.5830 -3.4658 -2.1064 -8.9821 3.6561 -2.8598 11.0096 1.5005 -1.3349 4.8798 -0.0000 -0.0000 0.0000 -87.5281 1.6723 21.3083 14.5203 -23.4736 -3.0323 -0.0000 0.0000 -0.1724 14.3051 -7.9181 -2.0118 -7.1250 0.0000 -0.0000 -9.0903 21.8481 5.1177 -0.0000 -0.0000 0.0000 89.7214 1.6714 17.1234 -12.2024 20.1075 -2.1714 0.0000 -0.0000 -8.1173 -14.7197 -23.1346 5.8931 7.1250 -0.0000 -0.0000 14.9188 -53.1939 -3.0609
15.2387 17.8879 17.1880 -142.7310 -81.2409 144.3370 0.0000 0.0000 0.0000 -15.3017 -0.0431 -7.3619 2.4691 9.7815 28.2720 1.1651 -3.3948 -19.5577 0.2848 3.4319 9.4837 0.0000 0.0000 0.0000 24.2144 6.8689 -6.3489 -2.5830 -9.9873 28.9356 -0.8389 -2.7055 -18.4826 -0.0709 -1.7172 4.7248 2.0565 2.1571 4.2546 1.0384 2.9934 -0.1027 -0.2713 1.4681 -2.4390 -3.4171 -2.1098 -8.9735 3.8553 -2.8878 10.7859 1.5527 -1.3342 4.8127 -0.0000 0.0000 0.0000 -87.3014 1.4578 21.2168 14.4934 -23.4357 -3.0216 -0.0000 0.0000 -0.1901 14.2838 -7.9923 -2.0274 -7.1250 0.0000 -0.0000 -9.1028 21.7735 5.1405 -0.0000 0.0000 0.0000 90.0005 1.8587 17.0655 -12.2609 20.1948 -2.1915 0.0000 -0.0000 -8.1578 -14.8889 -23.1892 5.9767 7.1250 -0.0000 -0.0000 14.7771 -53.2778 -3.0614
15.2438 17.8924 17.1997 -144.1710 -81.5721 145.7110 0.0000 0.0000 0.0000 -15.7774 -0.2703 -7.2137 2.4512 9.7487 28.1667 1.1541 -3.3651 -19.4667 0.3133 3.5984 9.9495 0.0000 0.0000 0.0000 23.7982 6.9762 -6.3142 -2.6002 -10.0179 29.0348 -0.8463 -2.7151 -18.5626 -0.0979 -2.0174 5.5537 1.8111 2.1077 4.3344 0.9370 2.9154 -0.0671 -0.2363 1.4322 -2.4554 -3.5326 -2.1188 -8.9450 3.8927 -2.8861 10.7112 1.5836 -1.3359 4.7870 -0.0000 -0.0000 0.0000 -87.3517 1.4235 21.1505 14.4752 -23.4099 -3.0143 -0.0000 0.0000 -0.0041 14.0801 -8.1945 -2.0474 -7.1250 0.0000 -0.0000 -9.2419 21.5763 5.2631 -0.0000 -0.0000 0.0000 89.9107 1.8698 17.2489 -12.3199 20.2826 -2.2119 0.0000 -0.0000 -8.4187 -15.0676 -23.2036 6.0547 7.1250 -0.0000 -0.0000 14.6070 -53.3242 -3.0417
15.2483 17.8944 17.2159 -143.0160 -81.8427 144.5390 0.0000 0.0000 0.0000 -15.8680 -0.5903 -7.1021 2.4348 9.7184 28.0696 1.1339 -3.2694 -19.3051 0.3260 3.6698 10.1495 0.0000 0.0000 0.0000 23.6738 6.6059 -6.5004 -2.6188 -10.0507 29.1411 -0.8596 -2.5840 -18.6303 -0.0868 -1.9001 5.2296 2.0025 1.9955 4.4501 0.8983 2.7783 -0.0942 -0.3794 1.3602 -2.5394 -3.5384 -2.0977 -8.9100 3.8573 -2.8553 10.7504 1.5760 -1.3238 4.7915 0.0000 -0.0000 0.0000 -87.3952 1.4546 20.9450 14.4525 -23.3779 -3.0053 -0.0000 -0.0000 0.3991 13.8089 -8.4574 -2.0703 -7.1250 0.0000 -0.0000 -9.4267 21.3209 5.4265 0.0000 -0.0000 0.0000 89.8706 1.7926 17.4095 -12.3618 20.3451 -2.2265 0.0000 -0.0000 -8.5847 -15.0964 -23.2189 6.0705 7.1250 -0.0000 -0.0000 14.5856 -53.3445 -3.0444
